# xmcd CD database file
#
# Track frame offsets:
#	180
#	31672
#	49311
#	67052
#
# Disc length: 1264 seconds
#
# Revision: 3
# Processed by: cddbd v1.5.1PL0 Copyright (c) Steve Scherf et al.
# Submitted via: CDex 1.51
#
DISCID=3104ee04
DTITLE=Open Road - Lagadjar
DYEAR=1995
DGENRE=Celtique
TTITLE0=Merrion Row
TTITLE1=The River
TTITLE2=Fear
TTITLE3=Giants' Causeway
EXTD=YEAR: 1995
EXTT0=
EXTT1=
EXTT2=
EXTT3=
PLAYORDER=
